<svg xmlns="http://www.w3.org/2000/svg" width="180" height="52" viewBox="0 0 180 52" role="img" aria-label="Support development">
  <rect x="0.5" y="0.5" width="179" height="51" rx="12" fill="#0B2545" stroke="#00C2A8" stroke-width="1" />
  <g font-family="system-ui,-apple-system,Segoe UI,Roboto,Ubuntu,sans-serif" font-size="14" font-weight="600" fill="#F4F6F8">
    <text x="56" y="30" letter-spacing="0.5" style="paint-order:stroke">Support</text>
    <text x="56" y="46" font-size="11" fill="#9AA4B1" font-weight="500">Buy me a coffee</text>
  </g>
  <g transform="translate(16,11)">
    <circle cx="15" cy="15" r="15" fill="url(#grad)" />
    <path d="M9 24h12c2 0 3-1 3-3v-5c0-1-.5-2-2-2h-1v-2c0-1-.8-2-2-2H11c-1.2 0-2 .9-2 2v9c0 2 1 3 2 3Zm12-8h1c.4 0 .6.2.6.6v4c0 .4-.2.6-.6.6H21v-5Z" fill="#fff"/>
    <path d="M12 12h6" stroke="#fff" stroke-width="1.4" stroke-linecap="round"/>
    <path d="M13 9c-.4-.6-.4-1.2 0-1.8M16 9c-.5-.7-.5-1.3 0-2M19 9c-.5-.7-.5-1.3 0-2" stroke="#fff" stroke-width="1.3" stroke-linecap="round" stroke-linejoin="round"/>
  </g>
  <defs>
    <linearGradient id="grad" x1="0" y1="0" x2="30" y2="30" gradientUnits="userSpaceOnUse">
      <stop offset="0%" stop-color="#00C2A8" />
      <stop offset="100%" stop-color="#0E5C7B" />
    </linearGradient>
  </defs>
</svg>